<svg width="47" height="31" viewBox="0 0 47 31" fill="none" xmlns="http://www.w3.org/2000/svg">
<rect x="0.5" y="0.5" width="45.6143" height="29.0304" rx="4.87857" fill="white"/>
<rect x="0.5" y="0.5" width="45.6143" height="29.0304" rx="4.87857" stroke="#D6DCE5"/>
<path d="M15.077 11.0816C15.388 10.6926 15.5991 10.1703 15.5434 9.63657C15.0882 9.6592 14.5326 9.93691 14.211 10.3262C13.9222 10.6596 13.6666 11.2037 13.7332 11.7151C14.2443 11.7594 14.7548 11.4596 15.077 11.0816Z" fill="#000008"/>
<path d="M15.5376 11.8149C14.7955 11.7707 14.1645 12.2361 13.81 12.2361C13.4554 12.2361 12.9127 11.8372 12.3257 11.8479C11.5617 11.8592 10.8528 12.2911 10.465 12.9782C9.6676 14.3527 10.2546 16.3915 11.0301 17.5109C11.4067 18.0647 11.8605 18.6745 12.4585 18.6526C13.0236 18.6304 13.245 18.2867 13.9319 18.2867C14.6182 18.2867 14.8177 18.6526 15.4158 18.6415C16.0361 18.6304 16.4238 18.0874 16.8004 17.533C17.2324 16.9017 17.4093 16.2921 17.4204 16.2587C17.4093 16.2476 16.2244 15.793 16.2134 14.43C16.2022 13.2887 17.1437 12.7459 17.188 12.7122C16.6563 11.9259 15.8256 11.8372 15.5376 11.8149Z" fill="#000008"/>
<path d="M21.9997 10.2704C23.6127 10.2704 24.736 11.3823 24.736 13.0011C24.736 14.6257 23.5896 15.7434 21.9592 15.7434H20.1733V18.5836H18.8829V10.2704L21.9997 10.2704ZM20.1733 14.6603H21.6539C22.7773 14.6603 23.4167 14.0554 23.4167 13.0069C23.4167 11.9584 22.7773 11.3593 21.6596 11.3593H20.1733V14.6603Z" fill="#000008"/>
<path d="M25.0731 16.861C25.0731 15.8009 25.8854 15.15 27.3258 15.0693L28.9848 14.9714V14.5048C28.9848 13.8307 28.5297 13.4275 27.7694 13.4275C27.0491 13.4275 26.5997 13.7731 26.4903 14.3147H25.3151C25.3842 13.22 26.3174 12.4135 27.8154 12.4135C29.2844 12.4135 30.2234 13.1912 30.2234 14.4068V18.5836H29.0308V17.5869H29.0022C28.6508 18.261 27.8845 18.6872 27.0895 18.6872C25.9027 18.6872 25.0731 17.9498 25.0731 16.861ZM28.9848 16.3138V15.8356L27.4927 15.9277C26.7495 15.9796 26.329 16.308 26.329 16.8265C26.329 17.3564 26.7668 17.7021 27.4351 17.7021C28.305 17.7021 28.9848 17.103 28.9848 16.3138Z" fill="#000008"/>
<path d="M31.3493 20.8131V19.8049C31.4413 19.8279 31.6487 19.8279 31.7524 19.8279C32.3285 19.8279 32.6396 19.586 32.8297 18.9638C32.8297 18.9523 32.9392 18.5951 32.9392 18.5893L30.7501 12.5229H32.098L33.6306 17.4544H33.6535L35.1861 12.5229H36.4996L34.2296 18.9004C33.7113 20.3695 33.1121 20.8419 31.8562 20.8419C31.7524 20.8419 31.4413 20.8303 31.3493 20.8131Z" fill="#000008"/>
</svg>
