<svg width="15" height="11" viewBox="0 0 15 11" fill="none" xmlns="http://www.w3.org/2000/svg">
<path d="M13.9465 1.89809L5.48483 10.3598C5.41113 10.4337 5.32356 10.4924 5.22713 10.5325C5.13071 10.5725 5.02733 10.5931 4.92292 10.5931C4.81851 10.5931 4.71513 10.5725 4.61871 10.5325C4.52228 10.4924 4.43471 10.4337 4.36101 10.3598L0.65902 6.6578C0.585229 6.58401 0.526695 6.49641 0.486759 6.39999C0.446824 6.30358 0.42627 6.20025 0.42627 6.09589C0.42627 5.99153 0.446824 5.8882 0.486759 5.79179C0.526695 5.69537 0.585229 5.60777 0.65902 5.53398C0.732811 5.46019 0.820414 5.40166 0.916826 5.36172C1.01324 5.32178 1.11657 5.30123 1.22093 5.30123C1.32529 5.30123 1.42862 5.32178 1.52503 5.36172C1.62145 5.40166 1.70905 5.46019 1.78284 5.53398L4.92358 8.67472L12.824 0.775597C12.9731 0.626569 13.1752 0.542847 13.3859 0.542847C13.5967 0.542847 13.7988 0.626569 13.9478 0.775597C14.0969 0.924625 14.1806 1.12675 14.1806 1.33751C14.1806 1.54826 14.0969 1.75039 13.9478 1.89942L13.9465 1.89809Z" fill="white"/>
</svg>
