<svg width="12" height="7" viewBox="0 0 12 7" fill="none" xmlns="http://www.w3.org/2000/svg">
<path d="M0.717449 5.46878L5.71745 0.468778C5.78713 0.398858 5.86992 0.343381 5.96108 0.305527C6.05225 0.267673 6.14999 0.248186 6.2487 0.248186C6.34741 0.248186 6.44515 0.267673 6.53631 0.305527C6.62748 0.34338 6.71027 0.398858 6.77995 0.468778L11.7799 5.46878C11.9208 5.60967 12 5.80077 12 6.00003C12 6.19928 11.9208 6.39038 11.7799 6.53128C11.6391 6.67217 11.448 6.75133 11.2487 6.75133C11.0494 6.75133 10.8583 6.67217 10.7174 6.53128L6.24807 2.0619L1.7787 6.5319C1.6378 6.6728 1.44671 6.75195 1.24745 6.75195C1.04819 6.75195 0.857096 6.6728 0.7162 6.5319C0.575304 6.39101 0.496147 6.19991 0.496147 6.00065C0.496147 5.8014 0.575304 5.6103 0.7162 5.4694L0.717449 5.46878Z" fill="black"/>
</svg>
