<svg width="47" height="31" viewBox="0 0 47 31" fill="none" xmlns="http://www.w3.org/2000/svg">
<rect x="0.5" y="0.5" width="45.6143" height="29.0304" rx="4.87857" fill="white"/>
<rect x="0.5" y="0.5" width="45.6143" height="29.0304" rx="4.87857" stroke="#D6DCE5"/>
<path d="M22.2939 18.6141H21.2454V10.4559H24.0249C24.7293 10.4559 25.33 10.6907 25.8214 11.1603C26.3238 11.6299 26.575 12.2033 26.575 12.8804C26.575 13.5739 26.3238 14.1473 25.8214 14.6115C25.3354 15.0756 24.7348 15.305 24.0249 15.305H22.2939V18.6141ZM22.2939 11.4606V14.3057H24.0467C24.4617 14.3057 24.8112 14.1637 25.0843 13.8852C25.3627 13.6067 25.5047 13.2681 25.5047 12.8859C25.5047 12.5091 25.3627 12.176 25.0843 11.8975C24.8112 11.6081 24.4672 11.4661 24.0467 11.4661H22.2939V11.4606Z" fill="#3C4043"/>
<path d="M29.3161 12.8477C30.0916 12.8477 30.7032 13.0552 31.1509 13.4702C31.5987 13.8852 31.8226 14.4531 31.8226 15.1739V18.6141H30.8233V17.8387H30.7796C30.3482 18.4776 29.7694 18.7943 29.0486 18.7943C28.4315 18.7943 27.9182 18.6141 27.5032 18.2483C27.0882 17.8824 26.8807 17.4292 26.8807 16.8831C26.8807 16.3043 27.0991 15.8456 27.536 15.507C27.9728 15.163 28.5571 14.9937 29.2834 14.9937C29.9059 14.9937 30.4192 15.1084 30.8178 15.3377V15.0975C30.8178 14.7316 30.6758 14.4258 30.3864 14.1691C30.097 13.9125 29.7585 13.7869 29.3708 13.7869C28.7865 13.7869 28.3223 14.0326 27.9837 14.5295L27.0609 13.9507C27.5687 13.2135 28.3223 12.8477 29.3161 12.8477ZM27.9619 16.8995C27.9619 17.1725 28.0766 17.4019 28.3114 17.5821C28.5407 17.7623 28.8138 17.8551 29.125 17.8551C29.5673 17.8551 29.9605 17.6913 30.3045 17.3636C30.6485 17.036 30.8233 16.6538 30.8233 16.2114C30.4956 15.9548 30.0424 15.8237 29.4581 15.8237C29.0322 15.8237 28.6773 15.9275 28.3933 16.1295C28.1039 16.3425 27.9619 16.5991 27.9619 16.8995Z" fill="#3C4043"/>
<path d="M37.5236 13.0279L34.0287 21.066H32.9475L34.2472 18.2538L31.9428 13.0279H33.0841L34.7441 17.036H34.7659L36.3823 13.0279H37.5236Z" fill="#3C4043"/>
<path d="M18.1235 14.6442C18.1235 14.3024 18.0929 13.9753 18.0361 13.6608H13.6414V15.4628L16.1724 15.4633C16.0697 16.0629 15.7394 16.574 15.2332 16.9148V18.0839H16.7398C17.6195 17.2697 18.1235 16.0662 18.1235 14.6442Z" fill="#4285F4"/>
<path d="M15.2337 16.9148C14.8143 17.1977 14.2743 17.3632 13.6425 17.3632C12.422 17.3632 11.3867 16.5408 11.0159 15.4323H9.4618V16.638C10.2317 18.1659 11.8142 19.2143 13.6425 19.2143C14.9061 19.2143 15.9676 18.7988 16.7403 18.0834L15.2337 16.9148Z" fill="#34A853"/>
<path d="M10.8695 14.5377C10.8695 14.2265 10.9214 13.9256 11.0159 13.6427V12.437H9.46175C9.1434 13.0688 8.96429 13.782 8.96429 14.5377C8.96429 15.2935 9.14394 16.0067 9.46175 16.6385L11.0159 15.4327C10.9214 15.1499 10.8695 14.849 10.8695 14.5377Z" fill="#FABB05"/>
<path d="M13.6425 11.7118C14.3321 11.7118 14.9497 11.9494 15.4374 12.4135L16.7725 11.0795C15.9616 10.3243 14.9044 9.86067 13.6425 9.86067C11.8148 9.86067 10.2317 10.9091 9.46175 12.437L11.0159 13.6427C11.3866 12.5342 12.422 11.7118 13.6425 11.7118Z" fill="#E94235"/>
</svg>
