<svg width="47" height="31" viewBox="0 0 47 31" fill="none" xmlns="http://www.w3.org/2000/svg">
<rect x="0.5" y="0.5" width="45.6143" height="29.0304" rx="4.87857" fill="white"/>
<rect x="0.5" y="0.5" width="45.6143" height="29.0304" rx="4.87857" stroke="#D6DCE5"/>
<path d="M26.6556 8.84839H19.7923V21.1819H26.6556V8.84839Z" fill="#FF5F00"/>
<path d="M20.2281 15.0151C20.2271 13.8273 20.4962 12.6548 21.0153 11.5864C21.5343 10.518 22.2896 9.58173 23.224 8.84838C22.0669 7.93887 20.6772 7.37325 19.2138 7.21618C17.7505 7.05912 16.2724 7.31694 14.9487 7.96018C13.6249 8.60342 12.5088 9.60614 11.7279 10.8537C10.9471 12.1013 10.533 13.5434 10.533 15.0151C10.533 16.4869 10.9471 17.929 11.7279 19.1766C12.5088 20.4241 13.6249 21.4269 14.9487 22.0701C16.2724 22.7133 17.7505 22.9712 19.2138 22.8141C20.6772 22.657 22.0669 22.0914 23.224 21.1819C22.2896 20.4485 21.5343 19.5122 21.0153 18.4438C20.4962 17.3754 20.2271 16.2029 20.2281 15.0151Z" fill="#EB001B"/>
<path d="M35.9146 15.0151C35.9146 16.4869 35.5006 17.929 34.7198 19.1765C33.939 20.4241 32.8229 21.4268 31.4992 22.0701C30.1754 22.7133 28.6974 22.9712 27.2341 22.8141C25.7707 22.657 24.3811 22.0914 23.224 21.1819C24.1576 20.4478 24.9123 19.5113 25.4312 18.4431C25.9502 17.3749 26.2198 16.2028 26.2198 15.0151C26.2198 13.8275 25.9502 12.6554 25.4312 11.5872C24.9123 10.5189 24.1576 9.58247 23.224 8.84838C24.3811 7.93886 25.7707 7.37325 27.2341 7.21618C28.6974 7.05912 30.1754 7.31695 31.4992 7.9602C32.8229 8.60345 33.939 9.60616 34.7198 10.8537C35.5006 12.1013 35.9146 13.5434 35.9146 15.0151Z" fill="#F79E1B"/>
<path d="M35.1662 19.8756V19.6231H35.268V19.5716H35.0087V19.6231H35.1106V19.8756H35.1662ZM35.6696 19.8756V19.5711H35.5902L35.4987 19.7805L35.4073 19.5711H35.3278V19.8756H35.3839V19.6459L35.4696 19.8439H35.5278L35.6136 19.6454V19.8756H35.6696Z" fill="#F79E1B"/>
</svg>
