<svg width="47" height="31" viewBox="0 0 47 31" fill="none" xmlns="http://www.w3.org/2000/svg">
<rect x="0.5" y="0.5" width="45.6143" height="29.0304" rx="4.87857" fill="white"/>
<rect x="0.5" y="0.5" width="45.6143" height="29.0304" rx="4.87857" stroke="#D6DCE5"/>
<path fill-rule="evenodd" clip-rule="evenodd" d="M10.1972 10.646H7.50966C7.32575 10.646 7.16934 10.7797 7.14066 10.9611L6.0537 17.8519C6.0321 17.9879 6.13741 18.1104 6.27534 18.1104H7.55838C7.74229 18.1104 7.8987 17.9768 7.92738 17.795L8.22055 15.9365C8.24882 15.7544 8.40562 15.621 8.58915 15.621H9.43991C11.2103 15.621 12.2319 14.7644 12.4989 13.0669C12.6191 12.3243 12.504 11.7408 12.1561 11.3321C11.7742 10.8835 11.0966 10.646 10.1972 10.646ZM10.5072 13.1628C10.3603 14.127 9.62344 14.127 8.91099 14.127H8.50544L8.78995 12.3262C8.80684 12.2174 8.90115 12.1372 9.01119 12.1372H9.19706C9.68238 12.1372 10.1402 12.1372 10.3768 12.4138C10.5178 12.5789 10.561 12.824 10.5072 13.1628ZM18.2307 13.1319H16.9438C16.8341 13.1319 16.7394 13.2121 16.7224 13.321L16.6655 13.6808L16.5755 13.5504C16.2969 13.146 15.6757 13.0109 15.0556 13.0109C13.6333 13.0109 12.4187 14.0879 12.1821 15.5988C12.0592 16.3523 12.2339 17.0729 12.6615 17.5755C13.0537 18.0375 13.6149 18.2301 14.2825 18.2301C15.4284 18.2301 16.0639 17.4933 16.0639 17.4933L16.0065 17.851C15.9848 17.9877 16.0901 18.1103 16.2272 18.1103H17.3866C17.571 18.1103 17.7265 17.9766 17.7555 17.7948L18.4511 13.3904C18.4731 13.255 18.3682 13.1319 18.2307 13.1319ZM16.4367 15.6364C16.3125 16.3716 15.729 16.8651 14.9848 16.8651C14.6111 16.8651 14.3123 16.7452 14.1207 16.5181C13.9304 16.2927 13.8581 15.9715 13.9186 15.6141C14.0346 14.8851 14.628 14.3756 15.3609 14.3756C15.7262 14.3756 16.0234 14.4969 16.2191 14.726C16.4151 14.9575 16.4929 15.2804 16.4367 15.6364ZM23.7916 13.1317H25.085C25.2661 13.1317 25.3718 13.3348 25.2688 13.4833L20.9675 19.6915C20.8978 19.792 20.7831 19.8519 20.6605 19.8519H19.3688C19.1869 19.8519 19.0807 19.6471 19.186 19.4982L20.5254 17.6079L19.1009 13.4279C19.0516 13.2826 19.1589 13.1317 19.3135 13.1317H20.5843C20.7494 13.1317 20.8951 13.2401 20.9427 13.3981L21.6987 15.9226L23.4825 13.2955C23.5523 13.193 23.6684 13.1317 23.7916 13.1317Z" fill="#253B80"/>
<path fill-rule="evenodd" clip-rule="evenodd" d="M37.8142 17.8513L38.9172 10.8345C38.9341 10.7256 39.0284 10.6454 39.1381 10.6451H40.3798C40.5169 10.6451 40.6222 10.768 40.6006 10.904L39.5129 17.7944C39.4845 17.9762 39.3281 18.1098 39.1439 18.1098H38.035C37.8979 18.1098 37.7926 17.9873 37.8142 17.8513ZM29.3673 10.6454H26.6793C26.4958 10.6454 26.3394 10.7791 26.3107 10.9605L25.2237 17.8513C25.2021 17.9873 25.3074 18.1098 25.4447 18.1098H26.8239C26.9521 18.1098 27.0617 18.0164 27.0817 17.8891L27.3902 15.9358C27.4185 15.7538 27.5753 15.6204 27.7588 15.6204H28.6091C30.3798 15.6204 31.4013 14.7637 31.6685 13.0663C31.789 12.3237 31.6732 11.7402 31.3255 11.3315C30.9438 10.8829 30.2667 10.6454 29.3673 10.6454ZM29.6773 13.1622C29.5308 14.1264 28.7939 14.1264 28.081 14.1264H27.6758L27.9608 12.3255C27.9777 12.2168 28.0712 12.1366 28.1816 12.1366H28.3674C28.8524 12.1366 29.3107 12.1366 29.5471 12.4132C29.6882 12.5783 29.7312 12.8234 29.6773 13.1622ZM37.4001 13.1312H36.1141C36.0035 13.1312 35.9096 13.2114 35.8931 13.3204L35.8362 13.6802L35.7458 13.5498C35.4672 13.1454 34.8463 13.0103 34.2262 13.0103C32.8039 13.0103 31.5897 14.0873 31.3531 15.5982C31.2305 16.3517 31.4046 17.0723 31.8321 17.5749C32.2251 18.0369 32.7856 18.2295 33.4532 18.2295C34.599 18.2295 35.2344 17.4927 35.2344 17.4927L35.1771 17.8504C35.1555 17.9871 35.2608 18.1096 35.3988 18.1096H36.5576C36.7411 18.1096 36.8975 17.976 36.9262 17.7942L37.6222 13.3898C37.6434 13.2544 37.5382 13.1312 37.4001 13.1312ZM35.6063 15.6358C35.4828 16.371 34.8985 16.8645 34.1542 16.8645C33.7812 16.8645 33.4819 16.7446 33.29 16.5175C33.0998 16.2921 33.0284 15.9709 33.0882 15.6135C33.2048 14.8845 33.7974 14.375 34.5303 14.375C34.8958 14.375 35.1928 14.4963 35.3886 14.7254C35.5854 14.9569 35.6632 15.2798 35.6063 15.6358Z" fill="#179BD7"/>
</svg>
