<svg width="19" height="20" viewBox="0 0 19 20" fill="none" xmlns="http://www.w3.org/2000/svg">
<path d="M19 10C19 10.2984 18.8815 10.5845 18.6705 10.7955C18.4595 11.0065 18.1734 11.125 17.875 11.125H10.75V18.25C10.75 18.5484 10.6315 18.8345 10.4205 19.0455C10.2095 19.2565 9.92337 19.375 9.625 19.375C9.32663 19.375 9.04048 19.2565 8.8295 19.0455C8.61853 18.8345 8.5 18.5484 8.5 18.25V11.125H1.375C1.07663 11.125 0.790483 11.0065 0.579505 10.7955C0.368526 10.5845 0.25 10.2984 0.25 10C0.25 9.70163 0.368526 9.41548 0.579505 9.2045C0.790483 8.99353 1.07663 8.875 1.375 8.875H8.5V1.75C8.5 1.45163 8.61853 1.16548 8.8295 0.954505C9.04048 0.743526 9.32663 0.625 9.625 0.625C9.92337 0.625 10.2095 0.743526 10.4205 0.954505C10.6315 1.16548 10.75 1.45163 10.75 1.75V8.875H17.875C18.1734 8.875 18.4595 8.99353 18.6705 9.2045C18.8815 9.41548 19 9.70163 19 10Z" fill="black"/>
</svg>
