<svg width="47" height="31" viewBox="0 0 47 31" fill="none" xmlns="http://www.w3.org/2000/svg">
<rect x="0.5" y="0.5" width="45.6143" height="29.0304" rx="4.87857" fill="white"/>
<rect x="0.5" y="0.5" width="45.6143" height="29.0304" rx="4.87857" stroke="#D6DCE5"/>
<path d="M23.0222 10.1212L20.8479 20.2848H18.2188L20.3934 10.1212H23.0222ZM34.0838 16.6839L35.468 12.8671L36.2645 16.6839H34.0838ZM37.0172 20.2848H39.4492L37.327 10.1212H35.0823C34.5779 10.1212 34.1524 10.4146 33.9629 10.8669L30.0184 20.2848H32.7794L33.3276 18.7671H36.7007L37.0172 20.2848ZM30.1555 16.9663C30.1667 14.2838 26.4458 14.1362 26.4716 12.9379C26.4793 12.5728 26.827 12.1855 27.5865 12.0861C27.9638 12.0369 29.0013 11.9992 30.1793 12.5413L30.6406 10.386C30.0078 10.1563 29.1936 9.9353 28.181 9.9353C25.5824 9.9353 23.7533 11.3169 23.7379 13.2953C23.7215 14.7583 25.0436 15.5747 26.0399 16.0611C27.0641 16.5594 27.4083 16.8785 27.4038 17.324C27.397 18.0063 26.5867 18.3068 25.8308 18.3187C24.5087 18.3396 23.7414 17.9619 23.1299 17.6769L22.6535 19.9039C23.2676 20.186 24.4015 20.4311 25.5779 20.4437C28.3396 20.4437 30.1464 19.0791 30.1555 16.9663ZM19.2652 10.1212L15.0055 20.2848H12.2259L10.1298 12.1736C10.0024 11.674 9.89175 11.4913 9.50477 11.2806C8.87331 10.938 7.82945 10.616 6.91105 10.4165L6.97378 10.1212H11.4474C12.0174 10.1212 12.5305 10.5008 12.6598 11.1574L13.7671 17.039L16.503 10.1212H19.2652Z" fill="#1434CB"/>
</svg>
